<svg class="border shadow-md" viewBox="0 0 1202.08 676.17" style="width: 1202.08px; height: 676.17px;" xmlns="http://www.w3.org/2000/svg" preserveAspectRatio="none"><rect class="bg" id="bg" x="0" y="0" width="1202.08" height="676.17" fill="#ffffff"/><path d="M -10 -67.61699999999999 S -300.52 -101.43&#10;                0.00 -67.62 300.52 -106.62&#10;                601.04 -67.62 901.56 -101.43&#10;                1202.08 -67.62 1502.60 -101.43&#10;                1803.12 -67.62 V 676.17 H 0 V -67.62 Z" fill="#1BA4FF"/><path d="M -10 0 S -339.00 -33.81&#10;                0.00 0.00 300.52 -64.00&#10;                601.04 0.00 901.56 -55.00&#10;                1202.08 0.00 1502.60 -35.00&#10;                1803.12 0.00 V 676.17 H 0 V 0.00 Z" fill="#1c97f2"/><path d="M -10 67.61699999999999 S -300.52 33.81&#10;                0.00 67.62 47.04 33.81&#10;                601.04 67.62 901.56 15.62&#10;                1202.08 67.62 1500.12 33.81&#10;                1803.12 67.62 V 676.17 H 0 V 67.62 Z" fill="#1d8ae5"/><path d="M -10 135.23399999999998 S -574.00 70.23&#10;                0.00 135.23 300.52 99.23&#10;                601.04 135.23 901.56 101.43&#10;                1202.08 135.23 1502.60 71.23&#10;                1803.12 135.23 V 676.17 H 0 V 135.23 Z" fill="#1e7dd8"/><path d="M -10 202.85099999999997 S -300.52 169.04&#10;                0.00 202.85 300.52 169.04&#10;                601.04 202.85 901.56 165.85&#10;                1202.08 202.85 1478.12 145.85&#10;                1803.12 202.85 V 676.17 H 0 V 202.85 Z" fill="#1f70cb"/><path d="M -10 270.46799999999996 S -300.52 209.47&#10;                0.00 270.47 300.52 215.47&#10;                601.04 270.47 694.08 236.66&#10;                1202.08 270.47 1502.60 221.47&#10;                1803.12 270.47 V 676.17 H 0 V 270.47 Z" fill="#2063be"/><path d="M -10 338.0849999999999 S -381.00 304.28&#10;                0.00 338.08 237.04 304.28&#10;                601.04 338.08 674.08 304.28&#10;                1202.08 338.08 1502.60 302.08&#10;                1803.12 338.08 V 676.17 H 0 V 338.08 Z" fill="#2156b1"/><path d="M -10 405.70199999999994 S -320.00 339.70&#10;                0.00 405.70 243.04 353.70&#10;                601.04 405.70 901.56 367.70&#10;                1202.08 405.70 1502.60 338.70&#10;                1803.12 405.70 V 676.17 H 0 V 405.70 Z" fill="#2249a4"/><path d="M -10 473.31899999999996 S -300.52 439.51&#10;                0.00 473.32 300.52 439.51&#10;                601.04 473.32 901.56 439.51&#10;                1202.08 473.32 1229.12 439.51&#10;                1803.12 473.32 V 676.17 H 0 V 473.32 Z" fill="#233c97"/><path d="M -10 540.9359999999999 S -300.52 507.13&#10;                0.00 540.94 79.04 496.94&#10;                601.04 540.94 901.56 507.13&#10;                1202.08 540.94 1502.60 507.13&#10;                1803.12 540.94 V 676.17 H 0 V 540.94 Z" fill="#242f8a"/><path d="M -10 608.5529999999999 S -378.00 574.74&#10;                0.00 608.55 227.04 547.55&#10;                601.04 608.55 901.56 574.74&#10;                1202.08 608.55 1502.60 574.74&#10;                1803.12 608.55 V 676.17 H 0 V 608.55 Z" fill="#25227d"/></svg>